<svg xmlns="http://www.w3.org/2000/svg" width="1695" height="605"><g transform="translate(670,30)"><path class="link" d="M0,0C0,40 -225,40 -225,80" style="opacity: 1; fill: none; stroke: rgb(204, 204, 204);"/><path class="link" d="M0,0C0,40 0,40 0,80" style="opacity: 1; fill: none; stroke: rgb(204, 204, 204);"/><path class="link" d="M0,0C0,40 225,40 225,80" style="opacity: 1; fill: none; stroke: rgb(204, 204, 204);"/><path class="link" d="M-225,80C-225,120 -275,120 -275,160" style="opacity: 1; fill: none; stroke: rgb(204, 204, 204);"/><path class="link" d="M-225,80C-225,120 -225,120 -225,160" style="opacity: 1; fill: none; stroke: rgb(204, 204, 204);"/><path class="link" d="M-225,80C-225,120 -75,120 -75,160" style="opacity: 1; fill: none; stroke: rgb(204, 204, 204);"/><path class="link" d="M-225,80C-225,120 -25,120 -25,160" style="opacity: 1; fill: none; stroke: rgb(204, 204, 204);"/><path class="link" d="M-225,80C-225,120 25,120 25,160" style="opacity: 1; fill: none; stroke: rgb(204, 204, 204);"/><path class="link" d="M-25,160C-25,200 -25,200 -25,240" style="opacity: 1; fill: none; stroke: rgb(204, 204, 204);"/><path class="link" d="M225,80C225,120 125,120 125,160" style="opacity: 1; fill: none; stroke: rgb(204, 204, 204);"/><path class="link" d="M225,80C225,120 175,120 175,160" style="opacity: 1; fill: none; stroke: rgb(204, 204, 204);"/><path class="link" d="M175,160C175,200 125,200 125,240" style="opacity: 1; fill: none; stroke: rgb(204, 204, 204);"/><path class="link" d="M-225,80C-225,120 -475,120 -475,160" style="opacity: 1; fill: none; stroke: rgb(204, 204, 204);"/><path class="link" d="M-225,80C-225,120 -425,120 -425,160" style="opacity: 1; fill: none; stroke: rgb(204, 204, 204);"/><path class="link" d="M-225,80C-225,120 -375,120 -375,160" style="opacity: 1; fill: none; stroke: rgb(204, 204, 204);"/><path class="link" d="M-225,80C-225,120 -125,120 -125,160" style="opacity: 1; fill: none; stroke: rgb(204, 204, 204);"/><path class="link" d="M225,80C225,120 325,120 325,160" style="opacity: 1; fill: none; stroke: rgb(204, 204, 204);"/><path class="link" d="M175,160C175,200 175,200 175,240" style="opacity: 1; fill: none; stroke: rgb(204, 204, 204);"/><path class="link" d="M175,160C175,200 225,200 225,240" style="opacity: 1; fill: none; stroke: rgb(204, 204, 204);"/><path class="link" d="M175,240C175,280 -650,280 -650,320" style="opacity: 1; fill: none; stroke: rgb(204, 204, 204);"/><path class="link" d="M-225,80C-225,120 -175,120 -175,160" style="opacity: 1; fill: none; stroke: rgb(204, 204, 204);"/><path class="link" d="M225,80C225,120 225,120 225,160" style="opacity: 1; fill: none; stroke: rgb(204, 204, 204);"/><path class="link" d="M-225,80C-225,120 -325,120 -325,160" style="opacity: 1; fill: none; stroke: rgb(204, 204, 204);"/><path class="link" d="M225,80C225,120 275,120 275,160" style="opacity: 1; fill: none; stroke: rgb(204, 204, 204);"/><path class="link" d="M175,240C175,280 -600,280 -600,320" style="opacity: 1; fill: none; stroke: rgb(204, 204, 204);"/><path class="link" d="M175,240C175,280 -450,280 -450,320" style="opacity: 1; fill: none; stroke: rgb(204, 204, 204);"/><path class="link" d="M175,240C175,280 -300,280 -300,320" style="opacity: 1; fill: none; stroke: rgb(204, 204, 204);"/><path class="link" d="M175,240C175,280 -100,280 -100,320" style="opacity: 1; fill: none; stroke: rgb(204, 204, 204);"/><path class="link" d="M175,240C175,280 100,280 100,320" style="opacity: 1; fill: none; stroke: rgb(204, 204, 204);"/><path class="link" d="M175,240C175,280 300,280 300,320" style="opacity: 1; fill: none; stroke: rgb(204, 204, 204);"/><path class="link" d="M175,240C175,280 500,280 500,320" style="opacity: 1; fill: none; stroke: rgb(204, 204, 204);"/><path class="link" d="M175,240C175,280 625,280 625,320" style="opacity: 1; fill: none; stroke: rgb(204, 204, 204);"/><path class="link" d="M175,240C175,280 750,280 750,320" style="opacity: 1; fill: none; stroke: rgb(204, 204, 204);"/><path class="link" d="M175,240C175,280 800,280 800,320" style="opacity: 1; fill: none; stroke: rgb(204, 204, 204);"/><path class="link" d="M175,240C175,280 850,280 850,320" style="opacity: 1; fill: none; stroke: rgb(204, 204, 204);"/><path class="link" d="M175,240C175,280 900,280 900,320" style="opacity: 1; fill: none; stroke: rgb(204, 204, 204);"/><path class="link" d="M175,240C175,280 950,280 950,320" style="opacity: 1; fill: none; stroke: rgb(204, 204, 204);"/><path class="link" d="M175,240C175,280 1000,280 1000,320" style="opacity: 1; fill: none; stroke: rgb(204, 204, 204);"/><path class="link" d="M-600,320C-600,360 -650,360 -650,400" style="opacity: 1; fill: none; stroke: rgb(204, 204, 204);"/><path class="link" d="M-600,320C-600,360 -600,360 -600,400" style="opacity: 1; fill: none; stroke: rgb(204, 204, 204);"/><path class="link" d="M-600,320C-600,360 -550,360 -550,400" style="opacity: 1; fill: none; stroke: rgb(204, 204, 204);"/><path class="link" d="M-300,320C-300,360 -450,360 -450,400" style="opacity: 1; fill: none; stroke: rgb(204, 204, 204);"/><path class="link" d="M-300,320C-300,360 -400,360 -400,400" style="opacity: 1; fill: none; stroke: rgb(204, 204, 204);"/><path class="link" d="M-300,320C-300,360 -350,360 -350,400" style="opacity: 1; fill: none; stroke: rgb(204, 204, 204);"/><path class="link" d="M-300,320C-300,360 -300,360 -300,400" style="opacity: 1; fill: none; stroke: rgb(204, 204, 204);"/><path class="link" d="M-300,320C-300,360 -250,360 -250,400" style="opacity: 1; fill: none; stroke: rgb(204, 204, 204);"/><path class="link" d="M-300,320C-300,360 -200,360 -200,400" style="opacity: 1; fill: none; stroke: rgb(204, 204, 204);"/><path class="link" d="M-300,320C-300,360 -150,360 -150,400" style="opacity: 1; fill: none; stroke: rgb(204, 204, 204);"/><path class="link" d="M-400,400C-400,440 -400,440 -400,480" style="opacity: 1; fill: none; stroke: rgb(204, 204, 204);"/><path class="link" d="M100,320C100,360 -50,360 -50,400" style="opacity: 1; fill: none; stroke: rgb(204, 204, 204);"/><path class="link" d="M100,320C100,360 0,360 0,400" style="opacity: 1; fill: none; stroke: rgb(204, 204, 204);"/><path class="link" d="M100,320C100,360 50,360 50,400" style="opacity: 1; fill: none; stroke: rgb(204, 204, 204);"/><path class="link" d="M100,320C100,360 100,360 100,400" style="opacity: 1; fill: none; stroke: rgb(204, 204, 204);"/><path class="link" d="M100,320C100,360 150,360 150,400" style="opacity: 1; fill: none; stroke: rgb(204, 204, 204);"/><path class="link" d="M100,320C100,360 200,360 200,400" style="opacity: 1; fill: none; stroke: rgb(204, 204, 204);"/><path class="link" d="M100,320C100,360 250,360 250,400" style="opacity: 1; fill: none; stroke: rgb(204, 204, 204);"/><path class="link" d="M0,400C0,440 0,440 0,480" style="opacity: 1; fill: none; stroke: rgb(204, 204, 204);"/><path class="link" d="M500,320C500,360 350,360 350,400" style="opacity: 1; fill: none; stroke: rgb(204, 204, 204);"/><path class="link" d="M500,320C500,360 400,360 400,400" style="opacity: 1; fill: none; stroke: rgb(204, 204, 204);"/><path class="link" d="M500,320C500,360 500,360 500,400" style="opacity: 1; fill: none; stroke: rgb(204, 204, 204);"/><path class="link" d="M500,320C500,360 600,360 600,400" style="opacity: 1; fill: none; stroke: rgb(204, 204, 204);"/><path class="link" d="M500,320C500,360 650,360 650,400" style="opacity: 1; fill: none; stroke: rgb(204, 204, 204);"/><path class="link" d="M400,400C400,440 350,440 350,480" style="opacity: 1; fill: none; stroke: rgb(204, 204, 204);"/><path class="link" d="M400,400C400,440 400,440 400,480" style="opacity: 1; fill: none; stroke: rgb(204, 204, 204);"/><path class="link" d="M400,400C400,440 450,440 450,480" style="opacity: 1; fill: none; stroke: rgb(204, 204, 204);"/><path class="link" d="M600,400C600,440 550,440 550,480" style="opacity: 1; fill: none; stroke: rgb(204, 204, 204);"/><path class="link" d="M600,400C600,440 600,440 600,480" style="opacity: 1; fill: none; stroke: rgb(204, 204, 204);"/><path class="link" d="M600,400C600,440 650,440 650,480" style="opacity: 1; fill: none; stroke: rgb(204, 204, 204);"/><path class="link" d="M600,480C600,520 600,520 600,560" style="opacity: 1; fill: none; stroke: rgb(204, 204, 204);"/><path class="link" d="M750,320C750,360 750,360 750,400" style="opacity: 1; fill: none; stroke: rgb(204, 204, 204);"/><path class="link" d="M950,320C950,360 900,360 900,400" style="opacity: 1; fill: none; stroke: rgb(204, 204, 204);"/><path class="link" d="M950,320C950,360 950,360 950,400" style="opacity: 1; fill: none; stroke: rgb(204, 204, 204);"/><path class="link" d="M950,320C950,360 1000,360 1000,400" style="opacity: 1; fill: none; stroke: rgb(204, 204, 204);"/><path class="link" d="M950,400C950,440 925,440 925,480" style="opacity: 1; fill: none; stroke: rgb(204, 204, 204);"/><path class="link" d="M950,400C950,440 975,440 975,480" style="opacity: 1; fill: none; stroke: rgb(204, 204, 204);"/><path class="link" d="M975,480C975,520 975,520 975,560" style="opacity: 1; fill: none; stroke: rgb(204, 204, 204);"/><g class="node element" transform="translate(0,0)" style="opacity: 1; font-size: 11px; font-weight: bold;"><circle r="10" style="stroke-width: 1.5px; fill: steelblue; stroke: rgb(53, 94, 149);"/><text text-anchor="middle" dy="-15">html</text></g><g class="node element" transform="translate(-225,80)" style="opacity: 1; font-size: 11px; font-weight: bold;"><circle r="10" style="stroke-width: 1.5px; fill: steelblue; stroke: rgb(53, 94, 149);"/><text text-anchor="middle" dy="-15">head</text></g><g class="node text indent" transform="translate(-275,160)" style="opacity: 1; font-size: 11px; font-weight: bold;"><circle r="10" style="stroke-width: 1.5px; fill: rgb(255, 204, 0); stroke: orange;"/><text text-anchor="middle" dy="-15">#text</text></g><g class="node element" transform="translate(-225,160)" style="opacity: 1; font-size: 11px; font-weight: bold;"><circle r="10" style="stroke-width: 1.5px; fill: steelblue; stroke: rgb(53, 94, 149);"/><text text-anchor="middle" dy="-15">meta</text></g><g class="node text indent" transform="translate(-75,160)" style="opacity: 1; font-size: 11px; font-weight: bold;"><circle r="10" style="stroke-width: 1.5px; fill: rgb(255, 204, 0); stroke: orange;"/><text text-anchor="middle" dy="-15">#text</text></g><g class="node element" transform="translate(-25,160)" style="opacity: 1; font-size: 11px; font-weight: bold;"><circle r="10" style="stroke-width: 1.5px; fill: steelblue; stroke: rgb(53, 94, 149);"/><text text-anchor="middle" dy="-15">title</text></g><g class="node text" transform="translate(-25,240)" style="opacity: 1; font-size: 11px; font-weight: bold;"><circle r="10" style="stroke-width: 1.5px; fill: rgb(80, 180, 86); stroke: rgb(13, 149, 44);"/><text text-anchor="middle" dy="-15">#text</text></g><g class="node text indent" transform="translate(25,160)" style="opacity: 1; font-size: 11px; font-weight: bold;"><circle r="10" style="stroke-width: 1.5px; fill: rgb(255, 204, 0); stroke: orange;"/><text text-anchor="middle" dy="-15">#text</text></g><g class="node text indent" transform="translate(0,80)" style="opacity: 1; font-size: 11px; font-weight: bold;"><circle r="10" style="stroke-width: 1.5px; fill: rgb(255, 204, 0); stroke: orange;"/><text text-anchor="middle" dy="-15">#text</text></g><g class="node element" transform="translate(225,80)" style="opacity: 1; font-size: 11px; font-weight: bold;"><circle r="10" style="stroke-width: 1.5px; fill: steelblue; stroke: rgb(53, 94, 149);"/><text text-anchor="middle" dy="-15">body</text></g><g class="node text indent" transform="translate(125,160)" style="opacity: 1; font-size: 11px; font-weight: bold;"><circle r="10" style="stroke-width: 1.5px; fill: rgb(255, 204, 0); stroke: orange;"/><text text-anchor="middle" dy="-15">#text</text></g><g class="node element" transform="translate(175,160)" style="opacity: 1; font-size: 11px; font-weight: bold;"><circle r="10" style="stroke-width: 1.5px; fill: steelblue; stroke: rgb(53, 94, 149);"/><text text-anchor="middle" dy="-15">div.box</text></g><g class="node text" transform="translate(125,240)" style="opacity: 1; font-size: 11px; font-weight: bold;"><circle r="10" style="stroke-width: 1.5px; fill: rgb(80, 180, 86); stroke: rgb(13, 149, 44);"/><text text-anchor="middle" dy="-15">#text</text></g><g class="node text indent" transform="translate(-475,160)" style="opacity: 1; font-size: 11px; font-weight: bold;"><circle r="10" style="stroke-width: 1.5px; fill: rgb(255, 204, 0); stroke: orange;"/><text text-anchor="middle" dy="-15">#text</text></g><g class="node element" transform="translate(-425,160)" style="opacity: 1; font-size: 11px; font-weight: bold;"><circle r="10" style="stroke-width: 1.5px; fill: steelblue; stroke: rgb(53, 94, 149);"/><text text-anchor="middle" dy="-15">link</text></g><g class="node text indent" transform="translate(-375,160)" style="opacity: 1; font-size: 11px; font-weight: bold;"><circle r="10" style="stroke-width: 1.5px; fill: rgb(255, 204, 0); stroke: orange;"/><text text-anchor="middle" dy="-15">#text</text></g><g class="node element" transform="translate(-125,160)" style="opacity: 1; font-size: 11px; font-weight: bold;"><circle r="10" style="stroke-width: 1.5px; fill: steelblue; stroke: rgb(53, 94, 149);"/><text text-anchor="middle" dy="-15">link</text></g><g class="node element" transform="translate(175,240)" style="opacity: 1; font-size: 11px; font-weight: bold;"><circle r="10" style="stroke-width: 1.5px; fill: steelblue; stroke: rgb(53, 94, 149);"/><text text-anchor="middle" dy="-15">form#login-form</text></g><g class="node text indent" transform="translate(-650,320)" style="opacity: 1; font-size: 11px; font-weight: bold;"><circle r="10" style="stroke-width: 1.5px; fill: rgb(255, 204, 0); stroke: orange;"/><text text-anchor="middle" dy="-15">#text</text></g><g class="node text indent" transform="translate(225,240)" style="opacity: 1; font-size: 11px; font-weight: bold;"><circle r="10" style="stroke-width: 1.5px; fill: rgb(255, 204, 0); stroke: orange;"/><text text-anchor="middle" dy="-15">#text</text></g><g class="node text indent" transform="translate(325,160)" style="opacity: 1; font-size: 11px; font-weight: bold;"><circle r="10" style="stroke-width: 1.5px; fill: rgb(255, 204, 0); stroke: orange;"/><text text-anchor="middle" dy="-15">#text</text></g><g class="node text indent" transform="translate(-175,160)" style="opacity: 1; font-size: 11px; font-weight: bold;"><circle r="10" style="stroke-width: 1.5px; fill: rgb(255, 204, 0); stroke: orange;"/><text text-anchor="middle" dy="-15">#text</text></g><g class="node text indent" transform="translate(225,160)" style="opacity: 1; font-size: 11px; font-weight: bold;"><circle r="10" style="stroke-width: 1.5px; fill: rgb(255, 204, 0); stroke: orange;"/><text text-anchor="middle" dy="-15">#text</text></g><g class="node element" transform="translate(-325,160)" style="opacity: 1; font-size: 11px; font-weight: bold;"><circle r="10" style="stroke-width: 1.5px; fill: steelblue; stroke: rgb(53, 94, 149);"/><text text-anchor="middle" dy="-15">meta</text></g><g class="node element" transform="translate(-600,320)" style="opacity: 1; font-size: 11px; font-weight: bold;"><circle r="10" style="stroke-width: 1.5px; fill: steelblue; stroke: rgb(53, 94, 149);"/><text text-anchor="middle" dy="-15">h2</text></g><g class="node text indent" transform="translate(-650,400)" style="opacity: 1; font-size: 11px; font-weight: bold;"><circle r="10" style="stroke-width: 1.5px; fill: rgb(255, 204, 0); stroke: orange;"/><text text-anchor="middle" dy="-15">#text</text></g><g class="node element" transform="translate(-600,400)" style="opacity: 1; font-size: 11px; font-weight: bold;"><circle r="10" style="stroke-width: 1.5px; fill: steelblue; stroke: rgb(53, 94, 149);"/><text text-anchor="middle" dy="-15">img.icono</text></g><g class="node text" transform="translate(-550,400)" style="opacity: 1; font-size: 11px; font-weight: bold;"><circle r="10" style="stroke-width: 1.5px; fill: rgb(80, 180, 86); stroke: rgb(13, 149, 44);"/><text text-anchor="middle" dy="-15">#text</text></g><g class="node text indent" transform="translate(-450,320)" style="opacity: 1; font-size: 11px; font-weight: bold;"><circle r="10" style="stroke-width: 1.5px; fill: rgb(255, 204, 0); stroke: orange;"/><text text-anchor="middle" dy="-15">#text</text></g><g class="node element" transform="translate(-300,320)" style="opacity: 1; font-size: 11px; font-weight: bold;"><circle r="10" style="stroke-width: 1.5px; fill: steelblue; stroke: rgb(53, 94, 149);"/><text text-anchor="middle" dy="-15">div.inputbox</text></g><g class="node text indent" transform="translate(-450,400)" style="opacity: 1; font-size: 11px; font-weight: bold;"><circle r="10" style="stroke-width: 1.5px; fill: rgb(255, 204, 0); stroke: orange;"/><text text-anchor="middle" dy="-15">#text</text></g><g class="node element" transform="translate(-400,400)" style="opacity: 1; font-size: 11px; font-weight: bold;"><circle r="10" style="stroke-width: 1.5px; fill: steelblue; stroke: rgb(53, 94, 149);"/><text text-anchor="middle" dy="-15">label.form-label</text></g><g class="node text" transform="translate(-400,480)" style="opacity: 1; font-size: 11px; font-weight: bold;"><circle r="10" style="stroke-width: 1.5px; fill: rgb(80, 180, 86); stroke: rgb(13, 149, 44);"/><text text-anchor="middle" dy="-15">#text</text></g><g class="node text indent" transform="translate(-350,400)" style="opacity: 1; font-size: 11px; font-weight: bold;"><circle r="10" style="stroke-width: 1.5px; fill: rgb(255, 204, 0); stroke: orange;"/><text text-anchor="middle" dy="-15">#text</text></g><g class="node element" transform="translate(-300,400)" style="opacity: 1; font-size: 11px; font-weight: bold;"><circle r="10" style="stroke-width: 1.5px; fill: steelblue; stroke: rgb(53, 94, 149);"/><text text-anchor="middle" dy="-15">input#email</text></g><g class="node text indent" transform="translate(-250,400)" style="opacity: 1; font-size: 11px; font-weight: bold;"><circle r="10" style="stroke-width: 1.5px; fill: rgb(255, 204, 0); stroke: orange;"/><text text-anchor="middle" dy="-15">#text</text></g><g class="node element" transform="translate(-200,400)" style="opacity: 1; font-size: 11px; font-weight: bold;"><circle r="10" style="stroke-width: 1.5px; fill: steelblue; stroke: rgb(53, 94, 149);"/><text text-anchor="middle" dy="-15">span.error-message</text></g><g class="node text indent" transform="translate(-150,400)" style="opacity: 1; font-size: 11px; font-weight: bold;"><circle r="10" style="stroke-width: 1.5px; fill: rgb(255, 204, 0); stroke: orange;"/><text text-anchor="middle" dy="-15">#text</text></g><g class="node text indent" transform="translate(-100,320)" style="opacity: 1; font-size: 11px; font-weight: bold;"><circle r="10" style="stroke-width: 1.5px; fill: rgb(255, 204, 0); stroke: orange;"/><text text-anchor="middle" dy="-15">#text</text></g><g class="node element" transform="translate(100,320)" style="opacity: 1; font-size: 11px; font-weight: bold;"><circle r="10" style="stroke-width: 1.5px; fill: steelblue; stroke: rgb(53, 94, 149);"/><text text-anchor="middle" dy="-15">div.inputbox</text></g><g class="node text indent" transform="translate(-50,400)" style="opacity: 1; font-size: 11px; font-weight: bold;"><circle r="10" style="stroke-width: 1.5px; fill: rgb(255, 204, 0); stroke: orange;"/><text text-anchor="middle" dy="-15">#text</text></g><g class="node element" transform="translate(0,400)" style="opacity: 1; font-size: 11px; font-weight: bold;"><circle r="10" style="stroke-width: 1.5px; fill: steelblue; stroke: rgb(53, 94, 149);"/><text text-anchor="middle" dy="-15">label.form-label</text></g><g class="node text" transform="translate(0,480)" style="opacity: 1; font-size: 11px; font-weight: bold;"><circle r="10" style="stroke-width: 1.5px; fill: rgb(80, 180, 86); stroke: rgb(13, 149, 44);"/><text text-anchor="middle" dy="-15">#text</text></g><g class="node text indent" transform="translate(50,400)" style="opacity: 1; font-size: 11px; font-weight: bold;"><circle r="10" style="stroke-width: 1.5px; fill: rgb(255, 204, 0); stroke: orange;"/><text text-anchor="middle" dy="-15">#text</text></g><g class="node element" transform="translate(100,400)" style="opacity: 1; font-size: 11px; font-weight: bold;"><circle r="10" style="stroke-width: 1.5px; fill: steelblue; stroke: rgb(53, 94, 149);"/><text text-anchor="middle" dy="-15">input#pass</text></g><g class="node text indent" transform="translate(150,400)" style="opacity: 1; font-size: 11px; font-weight: bold;"><circle r="10" style="stroke-width: 1.5px; fill: rgb(255, 204, 0); stroke: orange;"/><text text-anchor="middle" dy="-15">#text</text></g><g class="node element" transform="translate(200,400)" style="opacity: 1; font-size: 11px; font-weight: bold;"><circle r="10" style="stroke-width: 1.5px; fill: steelblue; stroke: rgb(53, 94, 149);"/><text text-anchor="middle" dy="-15">span.error-message</text></g><g class="node text indent" transform="translate(250,400)" style="opacity: 1; font-size: 11px; font-weight: bold;"><circle r="10" style="stroke-width: 1.5px; fill: rgb(255, 204, 0); stroke: orange;"/><text text-anchor="middle" dy="-15">#text</text></g><g class="node text indent" transform="translate(300,320)" style="opacity: 1; font-size: 11px; font-weight: bold;"><circle r="10" style="stroke-width: 1.5px; fill: rgb(255, 204, 0); stroke: orange;"/><text text-anchor="middle" dy="-15">#text</text></g><g class="node element" transform="translate(500,320)" style="opacity: 1; font-size: 11px; font-weight: bold;"><circle r="10" style="stroke-width: 1.5px; fill: steelblue; stroke: rgb(53, 94, 149);"/><text text-anchor="middle" dy="-15">div.forget</text></g><g class="node text indent" transform="translate(350,400)" style="opacity: 1; font-size: 11px; font-weight: bold;"><circle r="10" style="stroke-width: 1.5px; fill: rgb(255, 204, 0); stroke: orange;"/><text text-anchor="middle" dy="-15">#text</text></g><g class="node element" transform="translate(400,400)" style="opacity: 1; font-size: 11px; font-weight: bold;"><circle r="10" style="stroke-width: 1.5px; fill: steelblue; stroke: rgb(53, 94, 149);"/><text text-anchor="middle" dy="-15">label</text></g><g class="node text indent" transform="translate(350,480)" style="opacity: 1; font-size: 11px; font-weight: bold;"><circle r="10" style="stroke-width: 1.5px; fill: rgb(255, 204, 0); stroke: orange;"/><text text-anchor="middle" dy="-15">#text</text></g><g class="node element" transform="translate(400,480)" style="opacity: 1; font-size: 11px; font-weight: bold;"><circle r="10" style="stroke-width: 1.5px; fill: steelblue; stroke: rgb(53, 94, 149);"/><text text-anchor="middle" dy="-15">input</text></g><g class="node text" transform="translate(450,480)" style="opacity: 1; font-size: 11px; font-weight: bold;"><circle r="10" style="stroke-width: 1.5px; fill: rgb(80, 180, 86); stroke: rgb(13, 149, 44);"/><text text-anchor="middle" dy="-15">#text</text></g><g class="node text indent" transform="translate(500,400)" style="opacity: 1; font-size: 11px; font-weight: bold;"><circle r="10" style="stroke-width: 1.5px; fill: rgb(255, 204, 0); stroke: orange;"/><text text-anchor="middle" dy="-15">#text</text></g><g class="node element" transform="translate(600,400)" style="opacity: 1; font-size: 11px; font-weight: bold;"><circle r="10" style="stroke-width: 1.5px; fill: steelblue; stroke: rgb(53, 94, 149);"/><text text-anchor="middle" dy="-15">label</text></g><g class="node text indent" transform="translate(550,480)" style="opacity: 1; font-size: 11px; font-weight: bold;"><circle r="10" style="stroke-width: 1.5px; fill: rgb(255, 204, 0); stroke: orange;"/><text text-anchor="middle" dy="-15">#text</text></g><g class="node element" transform="translate(600,480)" style="opacity: 1; font-size: 11px; font-weight: bold;"><circle r="10" style="stroke-width: 1.5px; fill: steelblue; stroke: rgb(53, 94, 149);"/><text text-anchor="middle" dy="-15">a</text></g><g class="node text" transform="translate(600,560)" style="opacity: 1; font-size: 11px; font-weight: bold;"><circle r="10" style="stroke-width: 1.5px; fill: rgb(80, 180, 86); stroke: rgb(13, 149, 44);"/><text text-anchor="middle" dy="-15">#text</text></g><g class="node text indent" transform="translate(650,480)" style="opacity: 1; font-size: 11px; font-weight: bold;"><circle r="10" style="stroke-width: 1.5px; fill: rgb(255, 204, 0); stroke: orange;"/><text text-anchor="middle" dy="-15">#text</text></g><g class="node text indent" transform="translate(650,400)" style="opacity: 1; font-size: 11px; font-weight: bold;"><circle r="10" style="stroke-width: 1.5px; fill: rgb(255, 204, 0); stroke: orange;"/><text text-anchor="middle" dy="-15">#text</text></g><g class="node text indent" transform="translate(625,320)" style="opacity: 1; font-size: 11px; font-weight: bold;"><circle r="10" style="stroke-width: 1.5px; fill: rgb(255, 204, 0); stroke: orange;"/><text text-anchor="middle" dy="-15">#text</text></g><g class="node element" transform="translate(750,320)" style="opacity: 1; font-size: 11px; font-weight: bold;"><circle r="10" style="stroke-width: 1.5px; fill: steelblue; stroke: rgb(53, 94, 149);"/><text text-anchor="middle" dy="-15">button</text></g><g class="node text" transform="translate(750,400)" style="opacity: 1; font-size: 11px; font-weight: bold;"><circle r="10" style="stroke-width: 1.5px; fill: rgb(80, 180, 86); stroke: rgb(13, 149, 44);"/><text text-anchor="middle" dy="-15">#text</text></g><g class="node text indent" transform="translate(800,320)" style="opacity: 1; font-size: 11px; font-weight: bold;"><circle r="10" style="stroke-width: 1.5px; fill: rgb(255, 204, 0); stroke: orange;"/><text text-anchor="middle" dy="-15">#text</text></g><g class="node comment" transform="translate(850,320)" style="opacity: 1; font-size: 11px; font-weight: bold;"><circle r="10" style="stroke-width: 1.5px; fill: rgb(154, 80, 150); stroke: purple;"/><text text-anchor="middle" dy="-15">&lt;!-- --&gt;</text></g><g class="node text indent" transform="translate(900,320)" style="opacity: 1; font-size: 11px; font-weight: bold;"><circle r="10" style="stroke-width: 1.5px; fill: rgb(255, 204, 0); stroke: orange;"/><text text-anchor="middle" dy="-15">#text</text></g><g class="node element" transform="translate(950,320)" style="opacity: 1; font-size: 11px; font-weight: bold;"><circle r="10" style="stroke-width: 1.5px; fill: steelblue; stroke: rgb(53, 94, 149);"/><text text-anchor="middle" dy="-15">div.register</text></g><g class="node text indent" transform="translate(900,400)" style="opacity: 1; font-size: 11px; font-weight: bold;"><circle r="10" style="stroke-width: 1.5px; fill: rgb(255, 204, 0); stroke: orange;"/><text text-anchor="middle" dy="-15">#text</text></g><g class="node element" transform="translate(950,400)" style="opacity: 1; font-size: 11px; font-weight: bold;"><circle r="10" style="stroke-width: 1.5px; fill: steelblue; stroke: rgb(53, 94, 149);"/><text text-anchor="middle" dy="-15">p</text></g><g class="node text" transform="translate(925,480)" style="opacity: 1; font-size: 11px; font-weight: bold;"><circle r="10" style="stroke-width: 1.5px; fill: rgb(80, 180, 86); stroke: rgb(13, 149, 44);"/><text text-anchor="middle" dy="-15">#text</text></g><g class="node element" transform="translate(975,480)" style="opacity: 1; font-size: 11px; font-weight: bold;"><circle r="10" style="stroke-width: 1.5px; fill: steelblue; stroke: rgb(53, 94, 149);"/><text text-anchor="middle" dy="-15">a</text></g><g class="node text" transform="translate(975,560)" style="opacity: 1; font-size: 11px; font-weight: bold;"><circle r="10" style="stroke-width: 1.5px; fill: rgb(80, 180, 86); stroke: rgb(13, 149, 44);"/><text text-anchor="middle" dy="-15">#text</text></g><g class="node text indent" transform="translate(1000,400)" style="opacity: 1; font-size: 11px; font-weight: bold;"><circle r="10" style="stroke-width: 1.5px; fill: rgb(255, 204, 0); stroke: orange;"/><text text-anchor="middle" dy="-15">#text</text></g><g class="node text indent" transform="translate(1000,320)" style="opacity: 1; font-size: 11px; font-weight: bold;"><circle r="10" style="stroke-width: 1.5px; fill: rgb(255, 204, 0); stroke: orange;"/><text text-anchor="middle" dy="-15">#text</text></g><g class="node element" transform="translate(275,160)" style="opacity: 1; font-size: 11px; font-weight: bold;"><circle r="10" style="stroke-width: 1.5px; fill: steelblue; stroke: rgb(53, 94, 149);"/><text text-anchor="middle" dy="-15">script</text></g></g></svg>